HIERARCHY
ROOT Hips
{
  OFFSET -2.62055 105.893 74.1792
  CHANNELS 6 Xposition Yposition Zposition Zrotation Xrotation Yrotation
  JOINT RightUpLeg
  {
    OFFSET -8.9458 -8.66707 0.101652
    CHANNELS 3 Zrotation Xrotation Yrotation
    JOINT RightLeg
    {
      OFFSET 0 -44.4227 1.3727
      CHANNELS 3 Zrotation Xrotation Yrotation
      JOINT RightFoot
      {
        OFFSET 0.253549 -42.0924 -1.46059
        CHANNELS 3 Zrotation Xrotation Yrotation
        JOINT RightToes
        {
          OFFSET 0.04 -4.41509 8.4991
          CHANNELS 3 Zrotation Xrotation Yrotation
          End Site
          {
            OFFSET -0.08 -0.137448 9.77979
          }
        }
      }
    }
  }
  JOINT Spine
  {
    OFFSET 0 11.8905 0
    CHANNELS 3 Zrotation Xrotation Yrotation
    JOINT Spine1
    {
      OFFSET 0 25.6574 0.127663
      CHANNELS 3 Zrotation Xrotation Yrotation
      JOINT HEad
      {
        OFFSET 0 8.73416 0.011341
        CHANNELS 3 Zrotation Xrotation Yrotation
        End Site
        {
          OFFSET -0.29 12.7742 2.51395
        }
      }
      JOINT LeftShoulder1
      {
        OFFSET 8.99 -0.362252 -0.22
        CHANNELS 3 Zrotation Xrotation Yrotation
        JOINT LeftArm
        {
          OFFSET 10.2827 -0.00337999 0.322123
          CHANNELS 3 Zrotation Xrotation Yrotation
          JOINT LeftForeArm
          {
            OFFSET 26.2597 0.099144 -1.42434
            CHANNELS 3 Zrotation Xrotation Yrotation
            JOINT LeftHand
            {
              OFFSET 22.0902 0.085362 1.02216
              CHANNELS 3 Zrotation Xrotation Yrotation
              End Site
              {
                OFFSET 13.419 -0.6 1.50291
              }
            }
          }
        }
      }
      JOINT RightShoulder
      {
        OFFSET -8.99 -0.362252 -0.22
        CHANNELS 3 Zrotation Xrotation Yrotation
        JOINT RightArm
        {
          OFFSET -10.2827 -0.00338 0.322123
          CHANNELS 3 Zrotation Xrotation Yrotation
          JOINT RightForeArm
          {
            OFFSET -26.364 0.099144 -1.42434
            CHANNELS 3 Zrotation Xrotation Yrotation
            JOINT RightHand
            {
              OFFSET -22.0324 0.085362 1.02216
              CHANNELS 3 Zrotation Xrotation Yrotation
              End Site
              {
                OFFSET -13.3284 -0.6 1.50291
              }
            }
          }
        }
      }
    }
  }
  JOINT LeftUpLeg
  {
    OFFSET 8.9458 -8.66707 0.101652
    CHANNELS 3 Zrotation Xrotation Yrotation
    JOINT LeftLeg
    {
      OFFSET 0 -44.4227 1.3727
      CHANNELS 3 Zrotation Xrotation Yrotation
      JOINT LeftFoot
      {
        OFFSET -0.253549 -42.0924 -1.46059
        CHANNELS 3 Zrotation Xrotation Yrotation
        JOINT LeftToes
        {
          OFFSET -0.04 -4.41509 8.4991
          CHANNELS 3 Zrotation Xrotation Yrotation
          End Site
          {
            OFFSET 0.08 -0.047448 9.77979
          }
        }
      }
    }
  }
}
MOTION
Frames:	20
Frame Time:	0.0333333
-3.33971 102.044 74.6905 1.82667 5.02764 126.572 -23.2821 1.41623 -34.6803 -6.20925 38.1952 22.2037 20.5337 -21.8953 1.60798 7.72201e-016 1.98785e-015 0.662642 -1.43769 4.06673 2.42207 -1.67792 16.2117 2.93901 -9.70455 -18.4473 59.2978 -22.594 2.70687 -4.1152 -31.319 13.7224 -23.3636 32.1568 20.002 -72.4482 12.4087 3.01208 6.54561 29.1884 2.1613 9.39353 34.3305 -2.68386 13.9255 -5.11764 -1.09231 109.62 -14.5429 1.95755 -8.56057 8.87638 -14.792 18.1843 6.94326 43.9301 -9.68169 -7.88873 -16.8358 -0.27422 -1.59028e-015 -1.59028e-015 -1.47469e-008 
-2.62055 105.893 74.1792 2.3045 5.22739 123.986 -21.4488 2.79554 -30.471 -4.95799 31.075 19.1118 22.7347 -11.2799 -0.275314 -7.76799e-016 -1.59028e-015 0.662642 1.15692 3.15579 3.25148 -5.0081 16.0996 4.82577 -10.6857 -15.8182 60.4957 -23.5045 2.80383 -4.13675 -37.8236 13.7922 -17.4782 26.1741 18.8948 -67.7308 16.2413 3.85072 5.72591 30.2609 2.31248 9.6586 39.8372 2.29905 9.465 -3.37745 -0.568663 109.284 -11.1325 1.44483 -8.23699 8.33842 -9.68256 19.3507 5.15562 35.1511 -7.61584 -8.60143 -8.00085 0.376271 2.04654e-025 7.95139e-016 -1.47469e-008 
-1.97861 110.197 73.4824 2.2604 5.05377 122.702 -19.7137 4.05817 -27.9167 -3.74562 22.6091 15.0659 22.8559 4.16757 -3.17904 -3.58411e-015 4.96962e-016 0.662642 2.0729 1.72875 3.5273 -5.60013 15.2056 5.27392 -11.5055 -11.9576 62.1638 -24.826 2.92476 -4.09957 -42.9182 13.6301 -8.92627 19.802 13.9644 -67.5892 13.2518 2.91626 3.84605 30.5289 2.33622 9.68421 42.3574 8.10618 4.23499 0.79932 0.769573 114.218 -5.63235 0.633049 -6.91224 7.67624 -5.7052 20.8882 3.34667 24.8552 -7.20264 -8.07806 7.4492 1.44607 -4.77083e-015 -3.18055e-015 -1.47469e-008 
-1.8101 112.955 73.2027 1.51887 4.64363 123.633 -18.2535 3.6004 -26.1914 -3.32539 18.1107 11.5383 18.9484 14.6222 -4.274 1.23072e-015 -3.27995e-015 0.662642 0.840359 -0.108823 3.06599 -3.54969 15.1804 4.27476 -11.401 -10.5773 62.8385 -24.5834 2.97246 -4.33308 -47.491 13.7867 -2.35616 21.2736 12.7991 -71.7375 9.29172 1.92192 2.44194 29.1351 2.14044 9.3404 42.8329 11.9017 2.33134 2.45842 1.75126 120.39 -0.26977 -0.024797 -4.38065 7.17319 -5.87571 20.2061 2.64699 19.874 -6.6656 -7.46316 17.4741 1.99128 -4.77083e-015 3.18055e-015 -1.47469e-008 
-1.97994 113.93 73.2954 1.15469 4.71735 123.807 -17.786 2.00933 -22.6638 -3.26236 19.1814 13.6972 16.3404 12.981 -3.45368 -1.64786e-015 4.96962e-015 0.662642 -0.248209 -0.583225 3.18372 -2.79839 16.0037 4.15672 -10.7097 -11.7451 62.3084 -22.1229 2.81537 -4.65626 -51.4322 16.4187 0.0344011 24.603 12.4932 -75.9613 7.86017 1.56871 1.59562 26.4211 1.82218 8.7817 42.3515 11.374 4.05325 4.68198 3.50536 125.5 0.476823 -0.0855062 -3.05878 6.85109 -7.24425 19.4603 2.81679 20.1917 -5.19796 -5.47007 16.0948 1.44741 3.18055e-015 0 -1.47469e-008 
-2.38215 113.461 73.5383 1.49584 4.9743 123.631 -17.6289 1.00059 -19.8352 -2.81137 20.9942 20.5985 17.2699 8.20997 -2.97129 -1.5398e-015 -4.37326e-015 0.662642 -0.40589 0.881817 3.29227 -3.11876 15.8466 4.25011 -10.2633 -13.0524 62.131 -20.7372 2.66647 -4.63719 -50.9866 19.8453 -0.470134 25.2998 10.9033 -79.4456 5.90672 1.19112 2.02669 25.0052 1.68195 8.53493 38.8841 6.58848 7.57532 9.5138 7.29227 128.073 -3.59682 0.299611 -3.4611 6.83816 -7.94839 18.3925 2.96374 20.5227 -4.32026 -3.47102 16.2216 0.98065 0 0 -1.47469e-008 
-2.74524 111.334 73.7806 1.63439 4.75567 124.328 -17.2411 -0.882882 -18.0209 -2.93329 24.9155 25.3108 16.9239 3.09923 -2.22428 -4.75276e-015 -1.59028e-015 0.662642 -0.777801 2.12878 2.96813 -2.48383 14.5279 3.61292 -9.76858 -12.5868 62.0976 -20.6576 2.64446 -4.58715 -48.2678 21.4324 -1.98611 25.3164 9.72408 -81.5988 4.47564 0.898261 2.03289 25.4018 1.72783 8.62722 33.8997 -0.876907 10.9707 14.7917 10.1573 125.347 -7.84372 0.670007 -2.9232 7.78157 -10.1017 16.1877 3.43924 24.1121 -5.42313 -5.67058 15.2282 1.44905 1.59028e-015 -1.59028e-015 -1.47469e-008 
-2.86687 107.471 74.0124 1.72986 4.69279 124.015 -17.2704 -3.26666 -16.5643 -4.29147 32.6946 26.3655 12.9944 -9.00355 -0.534117 4.30918e-015 5.56597e-015 0.662642 -2.10548 2.40179 3.22355 -1.07435 14.1905 3.30428 -9.36861 -12.138 61.7649 -20.0079 2.58785 -4.62416 -45.5941 21.6251 -5.21323 22.3097 8.57414 -81.4129 5.113 0.999424 1.2298 25.5822 1.73829 8.63611 30.3021 -8.07813 14.9358 17.1799 9.1051 118.767 -11.4809 0.947331 -2.35705 9.85269 -12.7238 17.1914 4.57432 33.1442 -8.85825 -9.73154 2.50611 1.30327 3.18055e-015 -3.18055e-015 -1.47469e-008 
-3.14192 103.181 74.3425 2.56803 4.92898 122.831 -17.5074 -4.13779 -15.7643 -5.708 39.2427 27.0967 10.4383 -22.6045 0.63779 1.86559e-015 1.98785e-015 0.662642 -2.96209 3.06043 3.56662 -0.0726391 15.6121 3.20224 -9.6488 -14.3447 61.9862 -20.2856 2.52513 -4.2884 -40.3492 19.6461 -11.4603 19.5629 8.35844 -79.2902 5.22011 1.06002 2.33544 25.7727 1.75072 8.65019 28.359 -13.194 20.7474 13.4488 5.22246 112.014 -17.2546 1.81941 -4.85538 12.3963 -14.3124 20.5943 6.07145 42.0928 -12.3922 -10.8249 -11.2654 0.134005 -1.59028e-015 -1.59028e-015 -1.47469e-008 
-3.56181 101.081 74.5568 3.2666 4.84125 123.295 -17.4146 -4.28056 -15.9164 -6.34714 41.9245 27.7968 10.7782 -27.737 1.12708 2.10293e-016 -9.93923e-016 0.662642 -2.24548 3.68856 2.96201 -0.395373 17.1378 2.67194 -9.79699 -17.0985 62.382 -21.8155 2.57671 -3.92905 -36.93 15.6193 -17.0141 27.8898 13.9746 -76.6424 6.05323 1.3745 5.31582 27.3769 1.92968 8.97687 29.269 -13.6985 23.5094 7.26984 2.28933 107.081 -23.8458 3.49057 -9.44772 13.1493 -15.8584 20.5116 7.13779 46.2107 -12.7969 -9.93323 -15.7056 -0.280434 2.04654e-025 7.95139e-016 -1.47469e-008 
-3.37844 102.753 74.2788 3.04886 5.15823 124.449 -17.7028 -2.79959 -16.3614 -5.66194 38.9838 27.1079 12.2689 -23.7374 0.943964 -1.37434e-015 -1.49089e-015 0.662642 -1.789 3.13082 2.58311 -1.31474 17.6638 2.6366 -9.59121 -16.7405 62.0165 -22.3422 2.63091 -3.93919 -39.9497 13.8892 -17.0946 38.2918 20.2627 -77.1732 10.4418 2.68839 8.43443 29.5135 2.1793 9.39818 33.7895 -9.64018 17.9104 7.27017 2.07241 105.484 -26.9199 4.38912 -11.2941 11.2553 -14.2567 18.0735 6.30626 42.0368 -10.7492 -10.0925 -12.8277 -0.021021 7.95139e-016 7.95139e-016 -1.47469e-008 
-2.65731 107.036 73.625 2.48399 5.42547 124.37 -17.995 0.53086 -17.352 -3.61048 29.7662 27.167 14.7175 -12.1582 -0.186458 -2.93714e-015 -3.8763e-015 0.662642 -1.4017 1.94576 3.07907 -1.83466 16.8268 3.47118 -10.0448 -13.8886 61.5425 -22.6087 2.65602 -3.93613 -44.1064 15.0747 -11.4019 35.9137 17.4397 -78.4679 12.5171 3.13034 7.27772 31.3851 2.40319 9.73824 38.788 -5.27359 7.25325 11.2882 3.34777 107.118 -22.5828 3.69163 -11.5728 9.92429 -9.50944 18.7839 4.06712 31.1799 -10.5325 -10.7938 -1.50268 1.05956 1.59028e-015 -3.18055e-015 -1.47469e-008 
-2.17835 111.034 73.2501 1.687 4.44075 123.875 -16.9878 2.8641 -19.3736 -1.69775 19.0824 27.2054 18.5712 1.59074 -2.20191 3.1072e-015 6.36111e-015 0.662642 -0.100925 0.864112 3.47628 -2.08354 14.8117 4.09073 -10.9004 -11.4835 61.4811 -23.5352 2.71953 -3.84548 -46.1491 14.9712 -3.5149 27.5901 10.5566 -81.8967 5.72139 1.22401 3.53976 32.5042 2.54642 9.95042 41.5275 -1.48156 -2.61173 9.76034 3.72222 111.184 -13.8159 2.11784 -10.8053 10.2694 -6.25633 21.3081 1.72117 19.833 -11.782 -12.8526 13.5934 2.89219 1.59028e-015 0 -1.47469e-008 
-2.21753 113.175 73.3812 0.815354 2.88355 124.069 -15.5253 2.16848 -20.3445 -1.45855 15.6437 23.1902 19.8315 6.63795 -3.14532 -1.96499e-015 -1.98785e-015 0.662642 0.774081 -0.27335 3.32413 -1.56194 13.7598 3.82374 -11.1309 -11.6087 61.5746 -22.6345 2.65206 -3.91399 -48.93 13.3851 2.33632 22.1423 6.15018 -86.6863 -0.172713 -0.0550746 1.65926 31.1199 2.39575 9.75838 44.0167 2.2083 -7.84235 5.0532 2.61789 115.62 -5.99052 0.713576 -7.50513 11.0995 -6.84153 20.5602 1.05311 16.1203 -9.27302 -12.6585 17.5813 3.27529 1.22793e-024 4.77083e-015 -1.47469e-008 
-2.49534 113.592 73.699 0.779927 2.73498 124.182 -15.4137 0.8704 -20.9331 -2.52272 19.088 20.1684 17.963 5.13194 -2.65611 2.01787e-015 -2.5842e-015 0.662642 0.115629 -0.163182 3.06281 -0.467301 14.3803 3.25135 -11.0856 -13.4998 62.0955 -19.7154 2.40081 -4.03104 -52.0377 13.4389 4.37854 19.3248 3.84904 -90.7628 2.03942 0.394126 1.75625 28.0375 2.04101 9.21334 44.9259 4.27708 -7.75472 5.10878 2.96531 118.758 -0.350253 -0.022161 -5.49485 10.9872 -8.34371 20.4327 2.40525 19.1947 -6.11161 -7.38238 15.3469 1.84201 -1.59028e-015 -1.59028e-015 -1.47469e-008 
-2.86777 112.424 73.9737 1.20467 4.08541 123.739 -16.8472 0.365331 -20.1851 -3.25996 23.8021 20.8356 16.7741 4.73611 -2.43707 2.44075e-015 -4.77083e-015 0.662642 -1.28909 1.78587 2.91687 -0.0409981 14.3647 2.90081 -11.2297 -14.3163 62.8354 -17.6649 2.20124 -4.02555 -51.7456 14.5124 3.74984 19.785 2.83644 -93.7189 5.71609 1.19253 2.949 26.2574 1.84408 8.87436 42.0561 3.4484 -5.35547 9.01357 5.1939 120.225 1.6794 -0.253664 -5.62782 10.4337 -8.45066 21.3575 3.38945 22.9327 -4.33581 -5.02815 16.8316 1.38243 -3.18055e-015 0 -1.47469e-008 
-3.21698 109.577 74.2668 1.2499 5.27034 123.318 -18.6631 -0.931206 -18.5896 -4.09525 30.1553 23.7711 16.3284 -1.17974 -1.60223 2.3304e-015 4.77083e-015 0.662642 -2.597 3.52197 2.87215 -0.00159104 13.4719 2.64327 -11.3291 -13.9462 62.7983 -17.1389 2.15252 -4.03285 -48.088 14.688 1.45191 22.1744 2.74493 -94.6934 5.46503 1.14986 3.18998 25.9428 1.82378 8.85424 37.1334 0.0581117 -2.33273 13.4828 7.33002 119.431 0.0950276 -0.0705004 -5.19002 10.9232 -9.11191 22.8357 4.22833 28.9306 -5.59611 -9.17728 11.3881 1.90318 0 0 -1.47469e-008 
-3.61762 105.486 74.5904 1.63354 5.20472 123.44 -19.5274 -1.38613 -18.8689 -4.96834 36.1849 27.1216 15.4438 -15.3901 0.242513 1.59732e-016 -9.19379e-016 0.662642 -2.77024 4.18651 2.6004 0.734948 13.8909 2.00239 -11.5719 -15.16 62.3663 -17.6929 2.18042 -3.92887 -41.8966 13.3044 -3.55197 20.1009 3.26987 -92.6303 3.70804 0.767089 3.15265 26.087 1.81467 8.80613 31.3569 -5.20053 2.53271 16.3032 7.53835 115.883 -2.92951 0.251793 -4.48704 13.0324 -10.755 24.1274 5.44618 37.1455 -8.69219 -12.7612 -3.8917 0.934087 0 0 -1.47469e-008 
-4.16515 101.994 74.6053 2.25132 3.90721 123.992 -18.9112 -0.910305 -20.8351 -5.3666 38.6097 28.5995 14.1992 -25.8518 1.43138 -0 0 0.662642 -1.26995 3.80825 1.85504 1.69525 15.6472 0.97269 -12.2041 -17.3853 62.6432 -19.3303 2.26679 -3.65958 -36.7852 10.2232 -9.38584 23.81 6.1608 -87.6612 4.29152 0.917556 3.92542 27.1044 1.88235 8.87301 26.8053 -9.22199 8.61124 14.3655 4.51384 108.404 -9.93228 1.04088 -5.22154 15.3358 -13.2342 24.3363 6.8457 43.6764 -10.1837 -12.7315 -14.9288 -0.312413 -1.59028e-015 -7.95139e-016 -1.47469e-008 
-4.34983 101.385 73.9555 1.83405 2.72269 124.668 -18.2953 -0.950938 -22.0319 -5.29137 37.8457 27.8335 13.9048 -26.7705 1.50072 7.97491e-016 -1.98785e-016 0.662642 -0.0387675 2.07076 1.5349 2.30926 16.9596 0.494029 -13.0795 -17.6961 62.684 -20.8226 2.38509 -3.5805 -38.0409 8.23027 -10.9801 41.5272 13.3819 -86.1449 8.59597 1.9557 4.99568 28.3155 2.00934 9.08209 27.2092 -8.7849 9.61693 10.4742 1.89283 100.952 -22.2722 2.87912 -7.59338 15.2215 -14.5095 23.2054 7.17381 44.3634 -9.22818 -12.6317 -17.2972 -0.582154 -3.97569e-016 1.59028e-015 -1.47469e-008 
